<svg id="calendar" xmlns="http://www.w3.org/2000/svg" width="19.467" height="19.467" viewBox="0 0 19.467 19.467">
  <path id="Path_402" data-name="Path 402" d="M17.844,1.3H16.222V.973A.973.973,0,0,0,15.249,0H14.6a.973.973,0,0,0-.973.973V1.3H5.84V.973A.973.973,0,0,0,4.867,0H4.218a.973.973,0,0,0-.973.973V1.3H1.622A1.624,1.624,0,0,0,0,2.92V17.844a1.624,1.624,0,0,0,1.622,1.622H17.844a1.624,1.624,0,0,0,1.622-1.622V2.92A1.624,1.624,0,0,0,17.844,1.3ZM14.276.973A.324.324,0,0,1,14.6.649h.649a.324.324,0,0,1,.324.324V2.92a.324.324,0,0,1-.324.324H14.6a.324.324,0,0,1-.324-.324ZM3.893.973A.324.324,0,0,1,4.218.649h.649a.324.324,0,0,1,.324.324V2.92a.324.324,0,0,1-.324.324H4.218a.324.324,0,0,1-.324-.324ZM.649,2.92a.973.973,0,0,1,.973-.973H3.244V2.92a.973.973,0,0,0,.973.973h.649A.973.973,0,0,0,5.84,2.92V1.947h7.787V2.92a.973.973,0,0,0,.973.973h.649a.973.973,0,0,0,.973-.973V1.947h1.622a.973.973,0,0,1,.973.973V5.191H.649ZM18.818,17.844a.973.973,0,0,1-.973.973H1.622a.973.973,0,0,1-.973-.973v-12H18.818Zm0,0" fill="#46c6ff"/>
  <path id="Path_403" data-name="Path 403" d="M116.263,147.766h-2.6v2.6h2.6Zm-.649,1.947h-1.3v-1.3h1.3Zm0,0" transform="translate(-107.179 -139.33)" fill="#46c6ff"/>
  <path id="Path_404" data-name="Path 404" d="M184.463,147.766h-2.6v2.6h2.6Zm-.649,1.947h-1.3v-1.3h1.3Zm0,0" transform="translate(-171.485 -139.33)" fill="#46c6ff"/>
  <path id="Path_405" data-name="Path 405" d="M252.662,147.766h-2.6v2.6h2.6Zm-.649,1.947h-1.3v-1.3h1.3Zm0,0" transform="translate(-235.791 -139.33)" fill="#46c6ff"/>
  <path id="Path_406" data-name="Path 406" d="M48.061,204.6h-2.6v2.6h2.6Zm-.649,1.947h-1.3v-1.3h1.3Zm0,0" transform="translate(-42.869 -192.921)" fill="#46c6ff"/>
  <path id="Path_407" data-name="Path 407" d="M116.263,204.6h-2.6v2.6h2.6Zm-.649,1.947h-1.3v-1.3h1.3Zm0,0" transform="translate(-107.179 -192.921)" fill="#46c6ff"/>
  <path id="Path_408" data-name="Path 408" d="M184.463,204.6h-2.6v2.6h2.6Zm-.649,1.947h-1.3v-1.3h1.3Zm0,0" transform="translate(-171.485 -192.921)" fill="#46c6ff"/>
  <path id="Path_409" data-name="Path 409" d="M252.662,204.6h-2.6v2.6h2.6Zm-.649,1.947h-1.3v-1.3h1.3Zm0,0" transform="translate(-235.791 -192.921)" fill="#46c6ff"/>
  <path id="Path_410" data-name="Path 410" d="M48.061,261.434h-2.6v2.6h2.6Zm-.649,1.947h-1.3v-1.3h1.3Zm0,0" transform="translate(-42.869 -246.509)" fill="#46c6ff"/>
  <path id="Path_411" data-name="Path 411" d="M116.263,261.434h-2.6v2.6h2.6Zm-.649,1.947h-1.3v-1.3h1.3Zm0,0" transform="translate(-107.179 -246.509)" fill="#46c6ff"/>
  <path id="Path_412" data-name="Path 412" d="M184.463,261.434h-2.6v2.6h2.6Zm-.649,1.947h-1.3v-1.3h1.3Zm0,0" transform="translate(-171.485 -246.509)" fill="#46c6ff"/>
</svg>
