<svg xmlns="http://www.w3.org/2000/svg" width="16.987" height="14.447" viewBox="0 0 16.987 14.447">
  <g id="footer-general" transform="translate(-1.193 -29.201)">
    <g id="Group_2874" data-name="Group 2874" transform="translate(1.193 29.201)">
      <g id="Group_2873" data-name="Group 2873" transform="translate(0 0)">
        <path id="Path_7" data-name="Path 7" d="M48.059,33.362H44.845a.458.458,0,0,0-.458.458v3.112h-2.3V31.659a.458.458,0,0,0-.458-.458H38.416a.458.458,0,0,0-.458.458v8.661h-2.3V36.429a.458.458,0,0,0-.458-.458H31.988a.458.458,0,0,0-.458.458v8.762a.458.458,0,0,0,.458.458H48.059a.458.458,0,0,0,.458-.458V33.819A.458.458,0,0,0,48.059,33.362ZM34.744,44.733h-2.3V36.886h2.3Zm3.214,0h-2.3v-3.5h2.3Zm3.214-7.344v7.344h-2.3V32.116h2.3Zm3.214,7.344h-2.3V37.847h2.3Zm3.214,0H45.3V34.277h2.3V44.733Z" transform="translate(-31.53 -31.201)" fill="#46c6ff"/>
      </g>
    </g>
  </g>
</svg>
