<svg id="footer-today" xmlns="http://www.w3.org/2000/svg" width="18.911" height="8.962" viewBox="0 0 18.911 8.962">
  <g id="Group_2866" data-name="Group 2866">
    <g id="Group_2865" data-name="Group 2865">
      <path id="Path_3" data-name="Path 3" d="M16.9,134.68a2.006,2.006,0,0,0-1.682,3.1l-2.169,2.169a2,2,0,0,0-2.224.023l-2.192-2.192a2.008,2.008,0,1,0-3.364,0L3.1,139.952a2.011,2.011,0,1,0,.587.587l2.169-2.169a2,2,0,0,0,2.19,0l2.2,2.2a2.008,2.008,0,1,0,3.386-.035l2.169-2.169a2.008,2.008,0,1,0,1.095-3.69Zm-14.9,8.132a1.178,1.178,0,1,1,1.178-1.178A1.179,1.179,0,0,1,2.008,142.812Zm4.946-4.946a1.178,1.178,0,1,1,1.178-1.178A1.179,1.179,0,0,1,6.954,137.866Zm5,4.946a1.178,1.178,0,1,1,1.178-1.178A1.179,1.179,0,0,1,11.957,142.812Zm4.946-4.946a1.178,1.178,0,1,1,1.178-1.178A1.179,1.179,0,0,1,16.9,137.866Z" transform="translate(0 -134.68)" fill="#46c6ff"/>
    </g>
  </g>
  <g id="Group_2868" data-name="Group 2868" transform="translate(4.977 4.977)">
    <g id="Group_2867" data-name="Group 2867" transform="translate(0 0)">
      <path id="Path_4" data-name="Path 4" d="M136.293,269.548a.415.415,0,0,0-.587,0l-.844.844a.415.415,0,1,0,.587.587l.844-.844A.415.415,0,0,0,136.293,269.548Z" transform="translate(-134.741 -269.427)" fill="#46c6ff"/>
    </g>
  </g>
  <g id="Group_2870" data-name="Group 2870" transform="translate(12.26 2.326)">
    <g id="Group_2869" data-name="Group 2869" transform="translate(0 0)">
      <path id="Path_5" data-name="Path 5" d="M333.48,197.77a.415.415,0,0,0-.587,0l-.844.844a.415.415,0,0,0,.587.587l.844-.844A.415.415,0,0,0,333.48,197.77Z" transform="translate(-331.928 -197.649)" fill="#46c6ff"/>
    </g>
  </g>
</svg>
