<svg id="footer-profile" xmlns="http://www.w3.org/2000/svg" width="12.813" height="15.064" viewBox="0 0 12.813 15.064">
  <g id="Group_2864" data-name="Group 2864">
    <path id="Path_1" data-name="Path 1" d="M140.283,8.117h.1a2.878,2.878,0,0,0,2.2-.951,5.706,5.706,0,0,0,.98-3.9A3.183,3.183,0,0,0,142.048.44,3.468,3.468,0,0,0,140.37,0h-.053a3.474,3.474,0,0,0-1.678.427,3.184,3.184,0,0,0-1.532,2.842,5.706,5.706,0,0,0,.979,3.9A2.867,2.867,0,0,0,140.283,8.117Zm-2.343-4.77c0-.009,0-.019,0-.025A2.269,2.269,0,0,1,140.314.845h.037a2.281,2.281,0,0,1,2.371,2.477.061.061,0,0,0,0,.025,4.939,4.939,0,0,1-.77,3.26,2.045,2.045,0,0,1-1.607.668h-.031a2.038,2.038,0,0,1-1.6-.668A4.966,4.966,0,0,1,137.94,3.347Z" transform="translate(-133.931)" fill="#46c6ff"/>
    <path id="Path_2" data-name="Path 2" d="M48.885,263.123v-.009c0-.025,0-.05,0-.078a2.447,2.447,0,0,0-1.413-2.524l-.031-.009a9,9,0,0,1-2.589-1.179.421.421,0,0,0-.484.689,9.716,9.716,0,0,0,2.848,1.3c.727.259.808,1.036.83,1.747a.627.627,0,0,0,0,.078,5.662,5.662,0,0,1-.066.964,11.48,11.48,0,0,1-5.5,1.279,11.547,11.547,0,0,1-5.5-1.282,5.36,5.36,0,0,1-.066-.964c0-.025,0-.05,0-.078.022-.711.1-1.488.83-1.747a9.809,9.809,0,0,0,2.848-1.3.421.421,0,0,0-.484-.689,8.9,8.9,0,0,1-2.589,1.179l-.031.009a2.451,2.451,0,0,0-1.413,2.524.626.626,0,0,1,0,.078v.009a4.784,4.784,0,0,0,.159,1.413.4.4,0,0,0,.162.2,11.8,11.8,0,0,0,6.089,1.491,11.835,11.835,0,0,0,6.089-1.491.417.417,0,0,0,.162-.2A5.019,5.019,0,0,0,48.885,263.123Z" transform="translate(-36.073 -251.157)" fill="#46c6ff"/>
  </g>
</svg>
