<svg xmlns="http://www.w3.org/2000/svg" width="16.687" height="13" viewBox="0 0 16.687 13">
  <g id="footer-archive" transform="translate(60.5 39.5)">
    <path id="Path_370" data-name="Path 370" d="M-60-39h5.133l1.41,1.41h6.189a.389.389,0,0,1,.389.389v1.454h2.119a.447.447,0,0,1,.447.447v6.951A1.349,1.349,0,0,1-45.662-27H-58.651A1.349,1.349,0,0,1-60-28.349Z" transform="translate(0 0)" fill="none" stroke="#26bcff" stroke-miterlimit="10" stroke-width="1"/>
    <path id="Path_371" data-name="Path 371" d="M-31.667,14.438s1-.068,1.012-1.59V6.01a.343.343,0,0,1,.343-.343h9.717" transform="translate(-26.285 -41.438)" fill="none" stroke="#26bcff" stroke-miterlimit="10" stroke-width="1"/>
  </g>
</svg>
