<svg xmlns="http://www.w3.org/2000/svg" xmlns:xlink="http://www.w3.org/1999/xlink" width="183.075" height="198.611" viewBox="0 0 183.075 198.611">
  <defs>
    <linearGradient id="linear-gradient" x1="0.343" y1="0.152" x2="0.889" y2="0.976" gradientUnits="objectBoundingBox">
      <stop offset="0" stop-color="#1cffd0"/>
      <stop offset="1" stop-color="#1deeff"/>
    </linearGradient>
    <filter id="Path_219" x="25.666" y="150.935" width="68.198" height="35.932" filterUnits="userSpaceOnUse">
      <feOffset input="SourceAlpha"/>
      <feGaussianBlur stdDeviation="3" result="blur"/>
      <feFlood flood-color="#fff" flood-opacity="0.404"/>
      <feComposite operator="in" in2="blur"/>
      <feComposite in="SourceGraphic"/>
    </filter>
    <linearGradient id="linear-gradient-2" x1="1.052" y1="0.062" x2="0.062" y2="0.863" gradientUnits="objectBoundingBox">
      <stop offset="0" stop-color="#9d29e6"/>
      <stop offset="1" stop-color="#6e2fff"/>
    </linearGradient>
    <filter id="Union_11" x="138.503" y="71.03" width="44.572" height="77.144" filterUnits="userSpaceOnUse">
      <feOffset input="SourceAlpha"/>
      <feGaussianBlur stdDeviation="3" result="blur-2"/>
      <feFlood flood-color="#fff" flood-opacity="0.404"/>
      <feComposite operator="in" in2="blur-2"/>
      <feComposite in="SourceGraphic"/>
    </filter>
    <linearGradient id="linear-gradient-3" x1="0.973" y1="-0.01" x2="-0.018" y2="0.993" gradientUnits="objectBoundingBox">
      <stop offset="0" stop-color="#3365eb"/>
      <stop offset="1" stop-color="#26bcff"/>
    </linearGradient>
    <filter id="Union_12" x="85.69" y="124.594" width="72.211" height="74.017" filterUnits="userSpaceOnUse">
      <feOffset input="SourceAlpha"/>
      <feGaussianBlur stdDeviation="3" result="blur-3"/>
      <feFlood flood-color="#fff" flood-opacity="0.404"/>
      <feComposite operator="in" in2="blur-3"/>
      <feComposite in="SourceGraphic"/>
    </filter>
    <linearGradient id="linear-gradient-4" x1="0.966" y1="0.896" x2="0.023" y2="0.406" gradientUnits="objectBoundingBox">
      <stop offset="0" stop-color="#ff608e"/>
      <stop offset="1" stop-color="#e59f93"/>
    </linearGradient>
    <filter id="Path_220" x="10.323" y="0" width="164.602" height="81.427" filterUnits="userSpaceOnUse">
      <feOffset input="SourceAlpha"/>
      <feGaussianBlur stdDeviation="3" result="blur-4"/>
      <feFlood flood-color="#fc93b1" flood-opacity="0.569"/>
      <feComposite operator="in" in2="blur-4"/>
      <feComposite in="SourceGraphic"/>
    </filter>
  </defs>
  <g id="pseudo-radial-chart" transform="translate(-103.566 -234.564)">
    <path id="Path_218" data-name="Path 218" d="M1490.846,524.607a1.13,1.13,0,0,1,.349,1.538,81.27,81.27,0,0,0-11.85,42.286,82.249,82.249,0,0,0,24.3,58.181,1.356,1.356,0,0,1,.129,1.772h0a1.357,1.357,0,0,1-2.047.14,84.469,84.469,0,0,1-12.457-103.562,1.129,1.129,0,0,1,1.576-.355Z" transform="translate(-1373.434 -240.823)" fill="url(#linear-gradient)"/>
    <g transform="matrix(1, 0, 0, 1, 103.57, 234.56)" filter="url(#Path_219)">
      <path id="Path_219-2" data-name="Path 219" d="M1614.888,826.054a84.04,84.04,0,0,1-48.736-15.878,1.135,1.135,0,0,1-.3-1.5h0a1.135,1.135,0,0,1,1.639-.333,84.025,84.025,0,0,0,47.437,15.747.982.982,0,0,1,.818,1.489h0A.991.991,0,0,1,1614.888,826.054Z" transform="translate(-1531.02 -648.19)" fill="#fff"/>
    </g>
    <g transform="matrix(1, 0, 0, 1, 103.57, 234.56)" filter="url(#Union_11)">
      <path id="Union_11-2" data-name="Union 11" d="M6052.553-14783.854a1.136,1.136,0,0,1-.276-1.649,84.721,84.721,0,0,0,14.438-28.475,83.007,83.007,0,0,0,2.963-24.878.943.943,0,0,1,1.326-.986l.116.093a.988.988,0,0,1,.525.827q.157,3.422.035,6.773a1.647,1.647,0,0,1,0,.176q-.072,1.72-.211,3.417a80.869,80.869,0,0,1-1.32,9.438,83.685,83.685,0,0,1-16.082,35.015,1.125,1.125,0,0,1-.892.434A1.142,1.142,0,0,1,6052.553-14783.854Z" transform="matrix(0.99, -0.1, 0.1, 0.99, -4319.63, 15473.92)" stroke="rgba(0,0,0,0)" stroke-miterlimit="10" stroke-width="1" fill="url(#linear-gradient-2)"/>
    </g>
    <g transform="matrix(1, 0, 0, 1, 103.57, 234.56)" filter="url(#Union_12)">
      <path id="Union_12-2" data-name="Union 12" d="M6052.553-14783.854a1.136,1.136,0,0,1-.276-1.649,84.721,84.721,0,0,0,14.438-28.475,83.007,83.007,0,0,0,2.963-24.878.943.943,0,0,1,1.326-.986l.116.093a.988.988,0,0,1,.525.827q.157,3.422.035,6.773a1.647,1.647,0,0,1,0,.176q-.072,1.72-.211,3.417a80.869,80.869,0,0,1-1.32,9.438,83.685,83.685,0,0,1-16.082,35.015,1.125,1.125,0,0,1-.892.434A1.142,1.142,0,0,1,6052.553-14783.854Z" transform="translate(-14413.22 6860.08) rotate(43)" stroke="rgba(0,0,0,0)" stroke-miterlimit="10" stroke-width="1" fill="url(#linear-gradient-3)"/>
    </g>
    <g transform="matrix(1, 0, 0, 1, 103.57, 234.56)" filter="url(#Path_220)">
      <path id="Path_220-2" data-name="Path 220" d="M1672.176,485.411a1.034,1.034,0,0,1-1.173-.738c-10.071-35.087-41.922-60.719-79.657-60.719a80.971,80.971,0,0,0-63.235,29.662.945.945,0,0,1-1.413.058h0a.948.948,0,0,1-.047-1.261A84.454,84.454,0,0,1,1673,484.122a1.037,1.037,0,0,1-.822,1.29Z" transform="translate(-1507.11 -413)" fill="url(#linear-gradient-4)"/>
    </g>
  </g>
</svg>
